<mxfile host="65bd71144e">
    <diagram id="BpwQoohE_5zYa-WvaLtj" name="Page-1">
        <mxGraphModel dx="594" dy="561" grid="1" gridSize="10" guides="1" tooltips="1" connect="1" arrows="1" fold="1" page="1" pageScale="1" pageWidth="850" pageHeight="1100" math="0" shadow="0">
            <root>
                <mxCell id="0"/>
                <mxCell id="1" parent="0"/>
                <mxCell id="2" value="Vertical Container" style="swimlane;" vertex="1" parent="1">
                    <mxGeometry x="200" y="200" width="360" height="280" as="geometry"/>
                </mxCell>
                <mxCell id="3" value="" style="ellipse;whiteSpace=wrap;html=1;aspect=fixed;fillColor=#fff2cc;strokeColor=#d6b656;gradientColor=#ffd966;" vertex="1" parent="2">
                    <mxGeometry x="20" y="60" width="80" height="80" as="geometry"/>
                </mxCell>
                <mxCell id="5" value="Ottawa, Ontario&lt;br&gt;Temperature: -5 C&lt;br&gt;Sunny" style="text;html=1;strokeColor=none;fillColor=none;align=left;verticalAlign=middle;whiteSpace=wrap;rounded=0;" vertex="1" parent="2">
                    <mxGeometry x="10" y="150" width="170" height="90" as="geometry"/>
                </mxCell>
            </root>
        </mxGraphModel>
    </diagram>
</mxfile>